<?xml version="1.0" standalone="no"?><!DOCTYPE svg PUBLIC "-//W3C//DTD SVG 1.1//EN" "http://www.w3.org/Graphics/SVG/1.1/DTD/svg11.dtd"><svg t="1776944476854" class="icon" viewBox="0 0 1024 1024" version="1.1" xmlns="http://www.w3.org/2000/svg" p-id="4315" xmlns:xlink="http://www.w3.org/1999/xlink" width="200" height="200"><path d="M519.470164 514.350164m-486.819672 0a486.819672 486.819672 0 1 0 973.639344 0 486.819672 486.819672 0 1 0-973.639344 0Z" fill="var(--primary-color, #3EBBDD)" p-id="4316"></path><path d="M43.142295 413.628852c15.779672-74.97023 48.849836-143.527869 94.778754-201.442622h197.229115a33.238033 33.238033 0 0 1 33.238033 33.238032v0.671476a33.238033 33.238033 0 0 1-33.238033 33.238032h-34.245246a33.238033 33.238033 0 0 0-33.238033 33.238033v0.671476a33.238033 33.238033 0 0 0 33.238033 33.238032h101.392787a33.238033 33.238033 0 0 1 33.238033 33.238033v0.671476a33.238033 33.238033 0 0 1-33.238033 33.238032H43.142295zM653.429508 631.858361a33.238033 33.238033 0 0 0-33.238033 33.238032v0.671476a33.238033 33.238033 0 0 0 33.238033 33.238033h34.245246a33.238033 33.238033 0 0 1 33.238033 33.238032v0.671476a33.238033 33.238033 0 0 1-33.238033 33.238033h-101.392787a33.238033 33.238033 0 0 0-33.238033 33.238032v0.671476a33.238033 33.238033 0 0 0 33.238033 33.238033h300.804197a485.59423 485.59423 0 0 0 104.850885-201.442623H653.429508zM771.777049 346.481311h-168.876065a49.857049 49.857049 0 0 1-49.85705-49.857049v-1.007213a49.857049 49.857049 0 0 1 49.85705-49.857049h17.290491v-17.290492a49.857049 49.857049 0 0 1 49.85705-49.857049h34.580983a49.857049 49.857049 0 0 1 49.857049 49.857049v17.290492h17.290492a49.857049 49.857049 0 0 1 49.857049 49.857049v1.007213a49.857049 49.857049 0 0 1-49.857049 49.857049z" fill="#FFFFFF" p-id="4317"></path><path d="M771.777049 363.268197h-168.876065a66.727869 66.727869 0 0 1-66.643935-66.643935c0-37.753705 29.897443-67.651148 66.643935-67.651147l0.503606-0.503607a66.727869 66.727869 0 0 1 66.643935-66.643934h34.580983a66.727869 66.727869 0 0 1 66.643935 66.643934l0.503607 0.503607c37.754918 0 67.651148 29.897443 67.651148 67.651147a66.727869 66.727869 0 0 1-66.643935 66.643935z m-134.290164-150.814427c-29.393443 0-52.542295 23.148852-52.542295 52.542295l-0.503607 0.503607c-29.393443 0-52.542295 23.148852-52.542295 52.542295 0 29.393443 23.148852 52.542295 52.542295 52.542295h168.876065c29.393443 0 52.542295-23.148852 52.542295-52.542295 0-29.393443-23.148852-52.542295-52.542295-52.542295l-0.503607-0.503607c0-29.393443-23.148852-52.542295-52.542295-52.542295h-34.580983z" fill="#FFFFFF" p-id="4318"></path><path d="M771.777049 413.628852h-168.876065a33.238033 33.238033 0 0 1-33.238033-33.238033v-0.671475a33.238033 33.238033 0 0 1 33.238033-33.238033h168.876065a33.238033 33.238033 0 0 1 33.238033 33.238033v0.671475a33.238033 33.238033 0 0 1-33.238033 33.238033z m-168.876065-50.362623a16.619016 16.619016 0 0 0-16.619016 16.619016v0.671475a16.619016 16.619016 0 0 0 16.619016 16.619017h168.876065a16.619016 16.619016 0 0 0 16.619016-16.619017v-0.671475a16.619016 16.619016 0 0 0-16.619016-16.619016h-168.876065z" fill="#FFFFFF" p-id="4319"></path><path d="M771.777049 447.875082a33.238033 33.238033 0 0 1-33.238033-33.238033v-50.362623a33.238033 33.238033 0 0 1 33.238033-33.238032 33.238033 33.238033 0 0 1 33.238033 33.238032v50.362623a33.238033 33.238033 0 0 1-33.238033 33.238033z m0-83.676066a16.619016 16.619016 0 0 0-16.619016 16.619017v50.362623a16.619016 16.619016 0 0 0 16.619016 16.619016 16.619016 16.619016 0 0 0 16.619017-16.619016v-50.362623a16.619016 16.619016 0 0 0-16.619017-16.619017z" fill="#FFFFFF" p-id="4320"></path><path d="M771.777049 498.237705a33.238033 33.238033 0 0 1-33.238033-33.238033v-50.362623a33.238033 33.238033 0 0 1 33.238033-33.238033 33.238033 33.238033 0 0 1 33.238033 33.238033v50.362623a33.238033 33.238033 0 0 1-33.238033 33.238033z m0-83.676066a16.619016 16.619016 0 0 0-16.619016 16.619017v50.362623a16.619016 16.619016 0 0 0 16.619016 16.619016 16.619016 16.619016 0 0 0 16.619017-16.619016v-50.362623a16.619016 16.619016 0 0 0-16.619017-16.619017z" fill="#FFFFFF" p-id="4321"></path></svg>