<svg xmlns="http://www.w3.org/2000/svg" viewBox="0 0 120 120">
  <defs>
    <linearGradient id="grad1" x1="0%" y1="0%" x2="100%" y2="100%">
      <stop offset="0%" style="stop-color:#6C63FF;stop-opacity:1" />
      <stop offset="100%" style="stop-color:#8B85FF;stop-opacity:1" />
    </linearGradient>
    <linearGradient id="grad2" x1="0%" y1="0%" x2="100%" y2="100%">
      <stop offset="0%" style="stop-color:#10B981;stop-opacity:1" />
      <stop offset="100%" style="stop-color:#34D399;stop-opacity:1" />
    </linearGradient>
    <filter id="shadow">
      <feDropShadow dx="0" dy="3" stdDeviation="3" flood-color="#000" flood-opacity="0.15"/>
    </filter>
  </defs>
  <circle cx="60" cy="60" r="55" fill="url(#grad1)" filter="url(#shadow)"/>
  <g transform="translate(30, 30)">
    <path d="M15 20 L45 20 L45 25 L15 25 Z" fill="white"/>
    <path d="M15 30 L45 30 L45 35 L15 35 Z" fill="white" opacity="0.8"/>
    <path d="M15 40 L35 40 L35 45 L15 45 Z" fill="white" opacity="0.6"/>
    <circle cx="50" cy="15" r="8" fill="url(#grad2)"/>
    <path d="M50 8 L52 14 L58 14 L53 18 L55 24 L50 20 L45 24 L47 18 L42 14 L48 14 Z" fill="white"/>
  </g>
</svg>
