<svg xmlns="http://www.w3.org/2000/svg" viewBox="0 0 240 200">
  <defs>
    <linearGradient id="bgGrad" x1="0%" y1="0%" x2="100%" y2="100%">
      <stop offset="0%" style="stop-color:#F8F9FA;stop-opacity:1" />
      <stop offset="100%" style="stop-color:#F0F1F3;stop-opacity:1" />
    </linearGradient>
    <linearGradient id="purpleGrad" x1="0%" y1="0%" x2="100%" y2="100%">
      <stop offset="0%" style="stop-color:#6C63FF;stop-opacity:1" />
      <stop offset="100%" style="stop-color:#8B85FF;stop-opacity:1" />
    </linearGradient>
  </defs>
  <rect width="240" height="200" rx="12" fill="url(#bgGrad)"/>
  <g transform="translate(120, 90)">
    <rect x="-70" y="-30" width="140" height="100" rx="8" fill="white" stroke="#E5E7EB" stroke-width="1.5"/>
    <rect x="-60" y="-15" width="80" height="10" rx="3" fill="url(#purpleGrad)" opacity="0.15"/>
    <rect x="-60" y="0" width="110" height="8" rx="2" fill="#E5E7EB"/>
    <rect x="-60" y="15" width="90" height="8" rx="2" fill="#F3F4F6"/>
    <rect x="-60" y="30" width="70" height="8" rx="2" fill="#F3F4F6"/>
    <circle cx="45" cy="-45" r="20" fill="url(#purpleGrad)"/>
    <g fill="white">
      <circle cx="40" cy="-48" r="3"/>
      <path d="M45 -45 L48 -40 L55 -42 L50 -36 L52 -30 L46 -33 L40 -30 L42 -36 L37 -42 L44 -40 Z"/>
    </g>
  </g>
  <text x="120" y="170" text-anchor="middle" font-size="14" fill="#6B7280" font-family="system-ui">
    暂无创意
  </text>
</svg>
